<mxfile host="Electron" agent="Mozilla/5.0 (Windows NT 10.0; Win64; x64) AppleWebKit/537.36 (KHTML, like Gecko) draw.io/24.7.8 Chrome/128.0.6613.36 Electron/32.0.1 Safari/537.36" version="24.7.8">
  <diagram name="Page-1" id="GQDMm6SVOj5KhjQTXFy3">
    <mxGraphModel dx="1290" dy="669" grid="1" gridSize="10" guides="1" tooltips="1" connect="1" arrows="1" fold="1" page="1" pageScale="1" pageWidth="850" pageHeight="1100" math="0" shadow="0">
      <root>
        <mxCell id="0" />
        <mxCell id="1" parent="0" />
        <mxCell id="LDqM430rs20q4O_lEORY-5" style="edgeStyle=orthogonalEdgeStyle;rounded=0;orthogonalLoop=1;jettySize=auto;html=1;exitX=0.5;exitY=0;exitDx=0;exitDy=0;entryX=0.5;entryY=1;entryDx=0;entryDy=0;" edge="1" parent="1" source="LDqM430rs20q4O_lEORY-1" target="LDqM430rs20q4O_lEORY-3">
          <mxGeometry relative="1" as="geometry" />
        </mxCell>
        <mxCell id="LDqM430rs20q4O_lEORY-6" style="edgeStyle=orthogonalEdgeStyle;rounded=0;orthogonalLoop=1;jettySize=auto;html=1;exitX=0.5;exitY=0;exitDx=0;exitDy=0;entryX=0.5;entryY=1;entryDx=0;entryDy=0;" edge="1" parent="1" source="LDqM430rs20q4O_lEORY-1" target="LDqM430rs20q4O_lEORY-2">
          <mxGeometry relative="1" as="geometry" />
        </mxCell>
        <mxCell id="LDqM430rs20q4O_lEORY-1" value="Office" style="whiteSpace=wrap;html=1;align=center;" vertex="1" parent="1">
          <mxGeometry x="220" y="280" width="100" height="40" as="geometry" />
        </mxCell>
        <mxCell id="LDqM430rs20q4O_lEORY-2" value="Office_Location" style="ellipse;whiteSpace=wrap;html=1;align=center;" vertex="1" parent="1">
          <mxGeometry x="110" y="200" width="100" height="40" as="geometry" />
        </mxCell>
        <mxCell id="LDqM430rs20q4O_lEORY-3" value="Office_Number" style="ellipse;whiteSpace=wrap;html=1;align=center;fontStyle=4;" vertex="1" parent="1">
          <mxGeometry x="310" y="200" width="100" height="40" as="geometry" />
        </mxCell>
        <mxCell id="LDqM430rs20q4O_lEORY-14" style="edgeStyle=orthogonalEdgeStyle;rounded=0;orthogonalLoop=1;jettySize=auto;html=1;exitX=0.5;exitY=1;exitDx=0;exitDy=0;entryX=0.5;entryY=0;entryDx=0;entryDy=0;" edge="1" parent="1" source="LDqM430rs20q4O_lEORY-9" target="LDqM430rs20q4O_lEORY-12">
          <mxGeometry relative="1" as="geometry" />
        </mxCell>
        <mxCell id="LDqM430rs20q4O_lEORY-15" style="edgeStyle=orthogonalEdgeStyle;rounded=0;orthogonalLoop=1;jettySize=auto;html=1;exitX=0.5;exitY=1;exitDx=0;exitDy=0;entryX=0.5;entryY=0;entryDx=0;entryDy=0;" edge="1" parent="1" source="LDqM430rs20q4O_lEORY-9" target="LDqM430rs20q4O_lEORY-13">
          <mxGeometry relative="1" as="geometry" />
        </mxCell>
        <mxCell id="LDqM430rs20q4O_lEORY-9" value="Employee" style="whiteSpace=wrap;html=1;align=center;" vertex="1" parent="1">
          <mxGeometry x="220" y="590" width="100" height="40" as="geometry" />
        </mxCell>
        <mxCell id="LDqM430rs20q4O_lEORY-12" value="Emp_ID" style="ellipse;whiteSpace=wrap;html=1;align=center;fontStyle=4;" vertex="1" parent="1">
          <mxGeometry x="110" y="680" width="100" height="40" as="geometry" />
        </mxCell>
        <mxCell id="LDqM430rs20q4O_lEORY-13" value="Emp_Name" style="ellipse;whiteSpace=wrap;html=1;align=center;" vertex="1" parent="1">
          <mxGeometry x="310" y="680" width="100" height="40" as="geometry" />
        </mxCell>
        <mxCell id="LDqM430rs20q4O_lEORY-17" value="Work" style="shape=rhombus;perimeter=rhombusPerimeter;whiteSpace=wrap;html=1;align=center;" vertex="1" parent="1">
          <mxGeometry x="110" y="430" width="120" height="60" as="geometry" />
        </mxCell>
        <mxCell id="LDqM430rs20q4O_lEORY-19" value="" style="endArrow=none;html=1;rounded=0;exitX=0.5;exitY=0;exitDx=0;exitDy=0;entryX=0.5;entryY=1;entryDx=0;entryDy=0;" edge="1" parent="1" source="LDqM430rs20q4O_lEORY-9" target="LDqM430rs20q4O_lEORY-17">
          <mxGeometry width="50" height="50" relative="1" as="geometry">
            <mxPoint x="220" y="540" as="sourcePoint" />
            <mxPoint x="270" y="490" as="targetPoint" />
          </mxGeometry>
        </mxCell>
        <mxCell id="LDqM430rs20q4O_lEORY-20" value="" style="endArrow=none;html=1;rounded=0;exitX=0.5;exitY=0;exitDx=0;exitDy=0;" edge="1" parent="1" source="LDqM430rs20q4O_lEORY-17">
          <mxGeometry width="50" height="50" relative="1" as="geometry">
            <mxPoint x="269.5" y="420" as="sourcePoint" />
            <mxPoint x="269.5" y="320" as="targetPoint" />
          </mxGeometry>
        </mxCell>
        <mxCell id="LDqM430rs20q4O_lEORY-21" value="N" style="text;html=1;align=center;verticalAlign=middle;resizable=0;points=[];autosize=1;strokeColor=none;fillColor=none;" vertex="1" parent="1">
          <mxGeometry x="220" y="560" width="30" height="30" as="geometry" />
        </mxCell>
        <mxCell id="LDqM430rs20q4O_lEORY-22" value="1" style="text;html=1;align=center;verticalAlign=middle;resizable=0;points=[];autosize=1;strokeColor=none;fillColor=none;" vertex="1" parent="1">
          <mxGeometry x="230" y="320" width="30" height="30" as="geometry" />
        </mxCell>
        <mxCell id="LDqM430rs20q4O_lEORY-24" value="Manage" style="shape=rhombus;perimeter=rhombusPerimeter;whiteSpace=wrap;html=1;align=center;" vertex="1" parent="1">
          <mxGeometry x="290" y="430" width="120" height="60" as="geometry" />
        </mxCell>
        <mxCell id="LDqM430rs20q4O_lEORY-25" value="" style="endArrow=none;html=1;rounded=0;entryX=0.5;entryY=1;entryDx=0;entryDy=0;" edge="1" parent="1">
          <mxGeometry width="50" height="50" relative="1" as="geometry">
            <mxPoint x="270" y="590" as="sourcePoint" />
            <mxPoint x="350" y="490" as="targetPoint" />
          </mxGeometry>
        </mxCell>
        <mxCell id="LDqM430rs20q4O_lEORY-26" value="" style="endArrow=none;html=1;rounded=0;entryX=0.5;entryY=1;entryDx=0;entryDy=0;exitX=0.5;exitY=0;exitDx=0;exitDy=0;" edge="1" parent="1" source="LDqM430rs20q4O_lEORY-24">
          <mxGeometry width="50" height="50" relative="1" as="geometry">
            <mxPoint x="190" y="420" as="sourcePoint" />
            <mxPoint x="270" y="320" as="targetPoint" />
          </mxGeometry>
        </mxCell>
        <mxCell id="LDqM430rs20q4O_lEORY-27" value="1" style="text;html=1;align=center;verticalAlign=middle;resizable=0;points=[];autosize=1;strokeColor=none;fillColor=none;" vertex="1" parent="1">
          <mxGeometry x="280" y="320" width="30" height="30" as="geometry" />
        </mxCell>
        <mxCell id="LDqM430rs20q4O_lEORY-28" value="1" style="text;html=1;align=center;verticalAlign=middle;resizable=0;points=[];autosize=1;strokeColor=none;fillColor=none;" vertex="1" parent="1">
          <mxGeometry x="280" y="560" width="30" height="30" as="geometry" />
        </mxCell>
        <mxCell id="LDqM430rs20q4O_lEORY-29" value="" style="endArrow=none;html=1;rounded=0;exitX=0.433;exitY=0.993;exitDx=0;exitDy=0;exitPerimeter=0;" edge="1" parent="1" source="LDqM430rs20q4O_lEORY-17">
          <mxGeometry width="50" height="50" relative="1" as="geometry">
            <mxPoint x="210" y="640" as="sourcePoint" />
            <mxPoint x="260" y="590" as="targetPoint" />
          </mxGeometry>
        </mxCell>
        <mxCell id="LDqM430rs20q4O_lEORY-30" value="" style="endArrow=none;html=1;rounded=0;exitX=0.433;exitY=0.993;exitDx=0;exitDy=0;exitPerimeter=0;entryX=0.627;entryY=0.927;entryDx=0;entryDy=0;entryPerimeter=0;" edge="1" parent="1" target="LDqM430rs20q4O_lEORY-24">
          <mxGeometry width="50" height="50" relative="1" as="geometry">
            <mxPoint x="280" y="590" as="sourcePoint" />
            <mxPoint x="378" y="690" as="targetPoint" />
          </mxGeometry>
        </mxCell>
        <mxCell id="LDqM430rs20q4O_lEORY-37" style="edgeStyle=orthogonalEdgeStyle;rounded=0;orthogonalLoop=1;jettySize=auto;html=1;exitX=0.5;exitY=1;exitDx=0;exitDy=0;entryX=0.5;entryY=0;entryDx=0;entryDy=0;" edge="1" parent="1" source="LDqM430rs20q4O_lEORY-31" target="LDqM430rs20q4O_lEORY-36">
          <mxGeometry relative="1" as="geometry" />
        </mxCell>
        <mxCell id="LDqM430rs20q4O_lEORY-38" style="edgeStyle=orthogonalEdgeStyle;rounded=0;orthogonalLoop=1;jettySize=auto;html=1;exitX=0.5;exitY=1;exitDx=0;exitDy=0;entryX=0.5;entryY=0;entryDx=0;entryDy=0;" edge="1" parent="1" source="LDqM430rs20q4O_lEORY-31" target="LDqM430rs20q4O_lEORY-33">
          <mxGeometry relative="1" as="geometry" />
        </mxCell>
        <mxCell id="LDqM430rs20q4O_lEORY-31" value="Property" style="whiteSpace=wrap;html=1;align=center;" vertex="1" parent="1">
          <mxGeometry x="530" y="590" width="100" height="40" as="geometry" />
        </mxCell>
        <mxCell id="LDqM430rs20q4O_lEORY-43" style="edgeStyle=orthogonalEdgeStyle;rounded=0;orthogonalLoop=1;jettySize=auto;html=1;exitX=0.5;exitY=1;exitDx=0;exitDy=0;entryX=0.5;entryY=0;entryDx=0;entryDy=0;" edge="1" parent="1" source="LDqM430rs20q4O_lEORY-33" target="LDqM430rs20q4O_lEORY-41">
          <mxGeometry relative="1" as="geometry" />
        </mxCell>
        <mxCell id="LDqM430rs20q4O_lEORY-44" style="edgeStyle=orthogonalEdgeStyle;rounded=0;orthogonalLoop=1;jettySize=auto;html=1;exitX=0.5;exitY=1;exitDx=0;exitDy=0;" edge="1" parent="1" source="LDqM430rs20q4O_lEORY-33" target="LDqM430rs20q4O_lEORY-40">
          <mxGeometry relative="1" as="geometry" />
        </mxCell>
        <mxCell id="LDqM430rs20q4O_lEORY-45" style="edgeStyle=orthogonalEdgeStyle;rounded=0;orthogonalLoop=1;jettySize=auto;html=1;exitX=0.5;exitY=1;exitDx=0;exitDy=0;entryX=0.5;entryY=0;entryDx=0;entryDy=0;" edge="1" parent="1" source="LDqM430rs20q4O_lEORY-33" target="LDqM430rs20q4O_lEORY-39">
          <mxGeometry relative="1" as="geometry" />
        </mxCell>
        <mxCell id="LDqM430rs20q4O_lEORY-46" style="edgeStyle=orthogonalEdgeStyle;rounded=0;orthogonalLoop=1;jettySize=auto;html=1;exitX=0.5;exitY=1;exitDx=0;exitDy=0;entryX=0.5;entryY=0;entryDx=0;entryDy=0;" edge="1" parent="1" source="LDqM430rs20q4O_lEORY-33" target="LDqM430rs20q4O_lEORY-42">
          <mxGeometry relative="1" as="geometry" />
        </mxCell>
        <mxCell id="LDqM430rs20q4O_lEORY-33" value="Prop_Location" style="ellipse;whiteSpace=wrap;html=1;align=center;" vertex="1" parent="1">
          <mxGeometry x="670" y="680" width="100" height="40" as="geometry" />
        </mxCell>
        <mxCell id="LDqM430rs20q4O_lEORY-36" value="Prop_ID" style="ellipse;whiteSpace=wrap;html=1;align=center;fontStyle=4;" vertex="1" parent="1">
          <mxGeometry x="450" y="680" width="100" height="40" as="geometry" />
        </mxCell>
        <mxCell id="LDqM430rs20q4O_lEORY-39" value="State" style="ellipse;whiteSpace=wrap;html=1;align=center;" vertex="1" parent="1">
          <mxGeometry x="730" y="780" width="100" height="40" as="geometry" />
        </mxCell>
        <mxCell id="LDqM430rs20q4O_lEORY-40" value="City" style="ellipse;whiteSpace=wrap;html=1;align=center;" vertex="1" parent="1">
          <mxGeometry x="620" y="780" width="100" height="40" as="geometry" />
        </mxCell>
        <mxCell id="LDqM430rs20q4O_lEORY-41" value="Address" style="ellipse;whiteSpace=wrap;html=1;align=center;" vertex="1" parent="1">
          <mxGeometry x="510" y="780" width="100" height="40" as="geometry" />
        </mxCell>
        <mxCell id="LDqM430rs20q4O_lEORY-42" value="ZipCode" style="ellipse;whiteSpace=wrap;html=1;align=center;" vertex="1" parent="1">
          <mxGeometry x="840" y="780" width="100" height="40" as="geometry" />
        </mxCell>
        <mxCell id="LDqM430rs20q4O_lEORY-48" value="Have" style="shape=rhombus;perimeter=rhombusPerimeter;whiteSpace=wrap;html=1;align=center;" vertex="1" parent="1">
          <mxGeometry x="520" y="430" width="120" height="60" as="geometry" />
        </mxCell>
        <mxCell id="LDqM430rs20q4O_lEORY-49" value="" style="endArrow=none;html=1;rounded=0;exitX=0.5;exitY=0;exitDx=0;exitDy=0;entryX=0.5;entryY=1;entryDx=0;entryDy=0;" edge="1" parent="1" source="LDqM430rs20q4O_lEORY-31" target="LDqM430rs20q4O_lEORY-48">
          <mxGeometry width="50" height="50" relative="1" as="geometry">
            <mxPoint x="520" y="540" as="sourcePoint" />
            <mxPoint x="570" y="490" as="targetPoint" />
          </mxGeometry>
        </mxCell>
        <mxCell id="LDqM430rs20q4O_lEORY-50" value="" style="endArrow=none;html=1;rounded=0;entryX=0.5;entryY=1;entryDx=0;entryDy=0;" edge="1" parent="1" target="LDqM430rs20q4O_lEORY-1">
          <mxGeometry width="50" height="50" relative="1" as="geometry">
            <mxPoint x="580" y="430" as="sourcePoint" />
            <mxPoint x="630" y="380" as="targetPoint" />
          </mxGeometry>
        </mxCell>
        <mxCell id="LDqM430rs20q4O_lEORY-51" value="" style="endArrow=none;html=1;rounded=0;entryX=0.41;entryY=0.98;entryDx=0;entryDy=0;entryPerimeter=0;" edge="1" parent="1" target="LDqM430rs20q4O_lEORY-48">
          <mxGeometry width="50" height="50" relative="1" as="geometry">
            <mxPoint x="570" y="590" as="sourcePoint" />
            <mxPoint x="620" y="540" as="targetPoint" />
          </mxGeometry>
        </mxCell>
        <mxCell id="LDqM430rs20q4O_lEORY-52" value="1" style="text;html=1;align=center;verticalAlign=middle;resizable=0;points=[];autosize=1;strokeColor=none;fillColor=none;" vertex="1" parent="1">
          <mxGeometry x="300" y="310" width="30" height="30" as="geometry" />
        </mxCell>
        <mxCell id="LDqM430rs20q4O_lEORY-53" value="N" style="text;html=1;align=center;verticalAlign=middle;resizable=0;points=[];autosize=1;strokeColor=none;fillColor=none;" vertex="1" parent="1">
          <mxGeometry x="570" y="560" width="30" height="30" as="geometry" />
        </mxCell>
        <mxCell id="LDqM430rs20q4O_lEORY-59" style="edgeStyle=orthogonalEdgeStyle;rounded=0;orthogonalLoop=1;jettySize=auto;html=1;exitX=0.5;exitY=1;exitDx=0;exitDy=0;entryX=0.5;entryY=0;entryDx=0;entryDy=0;" edge="1" parent="1" source="LDqM430rs20q4O_lEORY-54" target="LDqM430rs20q4O_lEORY-55">
          <mxGeometry relative="1" as="geometry" />
        </mxCell>
        <mxCell id="LDqM430rs20q4O_lEORY-60" style="edgeStyle=orthogonalEdgeStyle;rounded=0;orthogonalLoop=1;jettySize=auto;html=1;exitX=0.5;exitY=1;exitDx=0;exitDy=0;entryX=0.5;entryY=0;entryDx=0;entryDy=0;" edge="1" parent="1" source="LDqM430rs20q4O_lEORY-54" target="LDqM430rs20q4O_lEORY-58">
          <mxGeometry relative="1" as="geometry" />
        </mxCell>
        <mxCell id="LDqM430rs20q4O_lEORY-54" value="Owner" style="whiteSpace=wrap;html=1;align=center;" vertex="1" parent="1">
          <mxGeometry x="970" y="590" width="100" height="40" as="geometry" />
        </mxCell>
        <mxCell id="LDqM430rs20q4O_lEORY-55" value="Owner_ID" style="ellipse;whiteSpace=wrap;html=1;align=center;fontStyle=4;" vertex="1" parent="1">
          <mxGeometry x="910" y="680" width="100" height="40" as="geometry" />
        </mxCell>
        <mxCell id="LDqM430rs20q4O_lEORY-58" value="Owner_Name" style="ellipse;whiteSpace=wrap;html=1;align=center;" vertex="1" parent="1">
          <mxGeometry x="1040" y="680" width="100" height="40" as="geometry" />
        </mxCell>
        <mxCell id="LDqM430rs20q4O_lEORY-67" style="edgeStyle=orthogonalEdgeStyle;rounded=0;orthogonalLoop=1;jettySize=auto;html=1;exitX=0.5;exitY=0;exitDx=0;exitDy=0;entryX=0.5;entryY=1;entryDx=0;entryDy=0;" edge="1" parent="1" source="LDqM430rs20q4O_lEORY-61" target="LDqM430rs20q4O_lEORY-66">
          <mxGeometry relative="1" as="geometry" />
        </mxCell>
        <mxCell id="LDqM430rs20q4O_lEORY-61" value="Have" style="shape=rhombus;perimeter=rhombusPerimeter;whiteSpace=wrap;html=1;align=center;" vertex="1" parent="1">
          <mxGeometry x="730" y="580" width="120" height="60" as="geometry" />
        </mxCell>
        <mxCell id="LDqM430rs20q4O_lEORY-62" value="" style="endArrow=none;html=1;rounded=0;exitX=1;exitY=0.5;exitDx=0;exitDy=0;" edge="1" parent="1" source="LDqM430rs20q4O_lEORY-61">
          <mxGeometry width="50" height="50" relative="1" as="geometry">
            <mxPoint x="920" y="660" as="sourcePoint" />
            <mxPoint x="970" y="610" as="targetPoint" />
          </mxGeometry>
        </mxCell>
        <mxCell id="LDqM430rs20q4O_lEORY-63" value="" style="endArrow=none;html=1;rounded=0;exitX=1;exitY=0.5;exitDx=0;exitDy=0;" edge="1" parent="1" source="LDqM430rs20q4O_lEORY-31">
          <mxGeometry width="50" height="50" relative="1" as="geometry">
            <mxPoint x="610" y="609.5" as="sourcePoint" />
            <mxPoint x="730" y="609.5" as="targetPoint" />
          </mxGeometry>
        </mxCell>
        <mxCell id="LDqM430rs20q4O_lEORY-64" value="N" style="text;html=1;align=center;verticalAlign=middle;resizable=0;points=[];autosize=1;strokeColor=none;fillColor=none;" vertex="1" parent="1">
          <mxGeometry x="630" y="590" width="30" height="30" as="geometry" />
        </mxCell>
        <mxCell id="LDqM430rs20q4O_lEORY-65" value="N" style="text;html=1;align=center;verticalAlign=middle;resizable=0;points=[];autosize=1;strokeColor=none;fillColor=none;" vertex="1" parent="1">
          <mxGeometry x="945" y="590" width="30" height="30" as="geometry" />
        </mxCell>
        <mxCell id="LDqM430rs20q4O_lEORY-66" value="Precent" style="ellipse;whiteSpace=wrap;html=1;align=center;" vertex="1" parent="1">
          <mxGeometry x="740" y="500" width="100" height="50" as="geometry" />
        </mxCell>
      </root>
    </mxGraphModel>
  </diagram>
</mxfile>
